<svg width="16" height="16" viewBox="0 0 16 16" fill="none" xmlns="http://www.w3.org/2000/svg">
<path fill-rule="evenodd" clip-rule="evenodd" d="M13.8182 0C15.0232 0 16 0.976836 16 2.18182V13.8182C16 15.0232 15.0232 16 13.8182 16H2.18182C0.976836 16 0 15.0232 0 13.8182V2.18182C0 0.976836 0.976836 0 2.18182 0H13.8182ZM13.8182 1.45455C14.2199 1.45455 14.5455 1.78016 14.5455 2.18182V13.8182C14.5455 14.2199 14.2199 14.5455 13.8182 14.5455H10.1818V9.45447H11.6918C12.0048 9.45447 12.2827 9.25418 12.3817 8.95716L12.7039 7.99062C12.8217 7.63738 12.5588 7.27265 12.1865 7.27265H10.1818V5.81812C10.1818 5.45449 10.5455 5.09085 10.9091 5.09085H12.3636C12.7653 5.09085 13.0909 4.76524 13.0909 4.36358V3.86468C13.0909 3.62975 12.9409 3.41913 12.7137 3.35918C11.7604 3.1076 10.9091 3.1076 10.9091 3.1076C9.09091 3.1076 8 4.36358 8 5.45449V7.27265H6.54545C6.1438 7.27265 5.81818 7.59825 5.81818 7.99993V8.7272C5.81818 9.12887 6.14379 9.45447 6.54545 9.45447H8V14.5455H2.18182C1.78016 14.5455 1.45455 14.2199 1.45455 13.8182V2.18182C1.45455 1.78016 1.78016 1.45455 2.18182 1.45455H13.8182Z" fill="white"/>
</svg>
