<svg width="512" height="512" viewBox="0 0 512 512" fill="none" xmlns="http://www.w3.org/2000/svg">
<circle cx="256" cy="256" r="256" fill="white"/>
<path d="M390.5 60V70C379.167 70.3333 370.5 71.6667 364.5 74C358.833 76 355 80 353 86C351 91.6666 350 100.667 350 113V371C350 380 350.667 386.833 352 391.5C353.333 395.833 355.833 398.833 359.5 400.5C363.167 401.833 368.5 402.5 375.5 402.5H392C400.667 402.5 410 399.167 420 392.5C430 385.833 439.667 376.667 449 365C458.667 353.333 467 340.167 474 325.5C481 310.5 486 295 489 279H500.5C499.5 291 499 306.333 499 325C499 333.667 499.167 346.333 499.5 363C499.833 379.333 500.833 396.333 502.5 414C485.5 413.333 466.333 413 445 413C423.667 412.667 404.667 412.5 388 412.5C379 412.5 367.5 412.5 353.5 412.5C339.833 412.5 324.833 412.667 308.5 413C292.5 413 276.167 413.167 259.5 413.5C243.167 413.5 227.667 413.667 213 414V404C223.333 403.333 231 402 236 400C241 398 244.333 394 246 388C247.667 382 248.5 373 248.5 361V113C248.5 100.667 247.667 91.6666 246 86C244.333 80 240.833 76 235.5 74C230.5 71.6667 223 70.3333 213 70V60C222.667 60.3333 235.333 60.6667 251 61C267 61.3333 284 61.5 302 61.5C318.667 61.5 335 61.3333 351 61C367 60.6667 380.167 60.3333 390.5 60Z" fill="url(#paint0_linear_19_9079)"/>
<defs>
<linearGradient id="paint0_linear_19_9079" x1="355.5" y1="-127" x2="355.5" y2="540" gradientUnits="userSpaceOnUse">
<stop stop-color="#E3B335"/>
<stop offset="1" stop-color="#AB5C00"/>
</linearGradient>
</defs>
</svg>
