<svg width="16" height="16" viewBox="0 0 16 16" fill="none" xmlns="http://www.w3.org/2000/svg">
<g clip-path="url(#clip0_3_9)">
<path fill-rule="evenodd" clip-rule="evenodd" d="M8 12C10.2091 12 12 10.2091 12 8C12 5.79086 10.2091 4 8 4C5.79086 4 4 5.79086 4 8C4 10.2091 5.79086 12 8 12ZM8 10.6667C9.47273 10.6667 10.6667 9.47273 10.6667 8C10.6667 6.52724 9.47273 5.33333 8 5.33333C6.52724 5.33333 5.33333 6.52724 5.33333 8C5.33333 9.47273 6.52724 10.6667 8 10.6667Z" fill="white"/>
<path d="M12 3.33325C11.6318 3.33325 11.3333 3.63173 11.3333 3.99992C11.3333 4.36811 11.6318 4.66659 12 4.66659C12.3682 4.66659 12.6667 4.36811 12.6667 3.99992C12.6667 3.63173 12.3682 3.33325 12 3.33325Z" fill="white"/>
<path fill-rule="evenodd" clip-rule="evenodd" d="M1.10264 2.85079C0.666664 3.70643 0.666664 4.82654 0.666664 7.06675V8.93341C0.666664 11.1736 0.666664 12.2937 1.10264 13.1493C1.48613 13.902 2.09805 14.5139 2.8507 14.8974C3.70635 15.3334 4.82646 15.3334 7.06666 15.3334H8.93333C11.1735 15.3334 12.2937 15.3334 13.1493 14.8974C13.9019 14.5139 14.5139 13.902 14.8973 13.1493C15.3333 12.2937 15.3333 11.1736 15.3333 8.93341V7.06675C15.3333 4.82654 15.3333 3.70643 14.8973 2.85079C14.5139 2.09813 13.9019 1.48621 13.1493 1.10272C12.2937 0.666748 11.1735 0.666748 8.93333 0.666748H7.06666C4.82646 0.666748 3.70635 0.666748 2.8507 1.10272C2.09805 1.48621 1.48613 2.09813 1.10264 2.85079ZM8.93333 2.00008H7.06666C5.92456 2.00008 5.14816 2.00112 4.54805 2.05015C3.96349 2.09791 3.66456 2.18447 3.45602 2.29073C2.95426 2.54639 2.54631 2.95434 2.29064 3.45611C2.18439 3.66464 2.09782 3.96357 2.05006 4.54813C2.00104 5.14825 2 5.92464 2 7.06675V8.93341C2 10.0755 2.00104 10.8519 2.05006 11.452C2.09782 12.0366 2.18439 12.3355 2.29064 12.5441C2.54631 13.0458 2.95426 13.4537 3.45602 13.7094C3.66456 13.8157 3.96349 13.9023 4.54805 13.95C5.14816 13.999 5.92456 14.0001 7.06666 14.0001H8.93333C10.0755 14.0001 10.8518 13.999 11.4519 13.95C12.0365 13.9023 12.3355 13.8157 12.544 13.7094C13.0457 13.4537 13.4537 13.0458 13.7093 12.5441C13.8156 12.3355 13.9022 12.0366 13.9499 11.452C13.9989 10.8519 14 10.0755 14 8.93341V7.06675C14 5.92464 13.9989 5.14825 13.9499 4.54813C13.9022 3.96357 13.8156 3.66464 13.7093 3.45611C13.4537 2.95434 13.0457 2.54639 12.544 2.29073C12.3355 2.18447 12.0365 2.09791 11.4519 2.05015C10.8518 2.00112 10.0755 2.00008 8.93333 2.00008Z" fill="white"/>
</g>
<defs>
<clipPath id="clip0_3_9">
<rect width="16" height="16" fill="white"/>
</clipPath>
</defs>
</svg>
