<svg width="22" height="20" viewBox="0 0 22 20" fill="none" xmlns="http://www.w3.org/2000/svg">
<path d="M15.3464 12.8309L14.7897 13.3636C14.7897 13.3636 13.4666 14.63 9.85489 11.1732C6.24325 7.7165 7.5664 6.4501 7.5664 6.4501L7.91693 6.11458C8.78056 5.28806 8.86196 3.96108 8.10846 2.99233L6.56731 1.01068C5.63478 -0.188334 3.83283 -0.346723 2.76399 0.676268L0.845591 2.51238C0.315612 3.01963 -0.0395411 3.67717 0.00353002 4.40661C0.113713 6.27274 0.990864 10.2879 5.88543 14.9725C11.0759 19.9403 15.9461 20.1377 17.9377 19.959C18.5676 19.9025 19.1154 19.5937 19.5569 19.1711L21.2932 17.5095C22.4652 16.3877 22.1347 14.4646 20.6351 13.68L18.3001 12.4581C17.3154 11.943 16.116 12.0943 15.3464 12.8309Z" fill="white"/>
</svg>
