<svg width="16" height="16" viewBox="0 0 16 16" fill="none" xmlns="http://www.w3.org/2000/svg">
<path d="M15.5889 0.316564C15.426 0.161299 15.2278 0.0581874 15.0156 0.0183954C14.8035 -0.0213966 14.5855 0.00364739 14.3853 0.0908155L0.749868 6.00495C0.512198 6.10804 0.311151 6.29332 0.176812 6.53307C0.0424728 6.77282 -0.0179364 7.05415 0.00462368 7.33497C0.0271837 7.61579 0.1315 7.88099 0.301964 8.0909C0.472427 8.3008 0.699872 8.44412 0.950266 8.49941L4.41378 9.2642V14.0404C4.41358 14.2986 4.48279 14.5511 4.61265 14.7658C4.74251 14.9806 4.92717 15.148 5.14326 15.2468C5.35934 15.3456 5.59712 15.3714 5.8265 15.3209C6.05587 15.2704 6.26652 15.1459 6.43176 14.9632L8.34851 12.8471L11.2577 15.6735C11.4719 15.8835 11.7483 15.9996 12.0347 16C12.1592 15.9998 12.283 15.9782 12.4014 15.9358C12.5968 15.8674 12.7725 15.7436 12.911 15.5768C13.0495 15.41 13.146 15.2061 13.1908 14.9852L15.9698 1.59713C16.0182 1.36563 16.0083 1.12392 15.9411 0.898187C15.874 0.672459 15.7522 0.471321 15.5889 0.316564ZM4.86789 8.0335L1.18223 7.21969L11.5022 2.74356L4.86789 8.0335ZM5.59589 14.0397V10.1727L7.45918 11.983L5.59589 14.0397ZM12.0386 14.6937L5.95127 8.77949L14.717 1.7901L12.0386 14.6937Z" fill="white"/>
</svg>
