<svg width="16" height="16" viewBox="0 0 16 16" fill="none" xmlns="http://www.w3.org/2000/svg">
<path d="M11.6307 9.58941C11.4267 9.49341 10.4494 9.01342 10.2668 8.93876C10.0843 8.86409 9.95538 8.84276 9.81577 9.04542C9.67616 9.24808 9.30028 9.68541 9.18215 9.82408C9.06402 9.96274 8.95662 9.97341 8.75258 9.82408C8.1665 9.59047 7.62523 9.25853 7.15241 8.84276C6.7244 8.44251 6.36204 7.97824 6.07848 7.46678C5.96035 7.27479 6.07848 7.16812 6.16439 7.06146C6.25031 6.95479 6.3577 6.83746 6.46509 6.72013C6.54363 6.61866 6.60861 6.50751 6.6584 6.38947C6.68505 6.33457 6.69888 6.27441 6.69888 6.21347C6.69888 6.15253 6.68505 6.09237 6.6584 6.03747C6.6584 5.94147 6.20735 4.97082 6.03552 4.57616C5.86369 4.1815 5.71334 4.23484 5.59521 4.23484H5.16563C4.961 4.24276 4.76788 4.33099 4.62867 4.48017C4.40395 4.69314 4.22596 4.94993 4.10584 5.23443C3.98572 5.51893 3.92606 5.825 3.93061 6.13347C3.98554 6.89077 4.2659 7.61476 4.73606 8.21344C5.59883 9.48641 6.77919 10.5154 8.16191 11.2001C8.63444 11.4027 8.99958 11.52 9.28954 11.616C9.69672 11.7383 10.1271 11.7639 10.546 11.6907C10.8243 11.6346 11.088 11.5224 11.3208 11.3609C11.5535 11.1995 11.7504 10.9922 11.8992 10.7521C12.023 10.4555 12.0639 10.1311 12.0173 9.81341C11.9636 9.73874 11.8348 9.68541 11.6307 9.58941Z" fill="white"/>
<path d="M13.639 2.32557C12.8963 1.58092 12.0109 0.991535 11.0352 0.59217C10.0595 0.192805 9.01314 -0.00845078 7.95786 0.000271864C6.55991 0.0075378 5.18835 0.378966 3.98015 1.07746C2.77196 1.77595 1.76943 2.77707 1.07269 3.98081C0.375943 5.18455 0.00937523 6.54879 0.00959417 7.93727C0.00981311 9.32575 0.376811 10.6899 1.07393 11.8934L0 16L4.2313 14.9334C5.40107 15.5656 6.71204 15.8957 8.04377 15.8933H7.95786C9.54504 15.9036 11.0993 15.4441 12.4226 14.5735C13.7458 13.7029 14.7779 12.4606 15.3874 11.005C15.9969 9.54939 16.1561 7.94649 15.8447 6.40067C15.5333 4.85486 14.7654 3.43619 13.639 2.32557ZM7.95786 14.528C6.76638 14.529 5.59706 14.2082 4.57496 13.6L4.3387 13.4614L1.82569 14.112L2.49153 11.6801L2.34118 11.4347C1.48349 10.0629 1.16265 8.426 1.43955 6.83473C1.71645 5.24347 2.57182 3.80851 3.84336 2.80213C5.1149 1.79574 6.71415 1.28795 8.33766 1.37509C9.96118 1.46224 11.496 2.13826 12.651 3.27488C13.2701 3.88489 13.7609 4.61119 14.0946 5.41146C14.4283 6.21172 14.5983 7.06995 14.5948 7.93614C14.5919 9.68355 13.8918 11.3586 12.6477 12.5942C11.4037 13.8298 9.7172 14.5252 7.95786 14.528Z" fill="white"/>
</svg>
