<svg width="65" height="19" viewBox="0 0 65 19" fill="none" xmlns="http://www.w3.org/2000/svg">
<path d="M8.376 1.008V1.488C7.832 1.504 7.416 1.568 7.128 1.68C6.856 1.776 6.672 1.968 6.576 2.256C6.48 2.528 6.432 2.96 6.432 3.552V15.744C6.432 16.24 6.464 16.608 6.528 16.848C6.608 17.088 6.752 17.248 6.96 17.328C7.184 17.408 7.512 17.448 7.944 17.448H9.12C9.664 17.448 10.176 17.32 10.656 17.064C11.136 16.808 11.568 16.448 11.952 15.984C12.336 15.504 12.656 14.936 12.912 14.28C13.168 13.624 13.36 12.896 13.488 12.096H14.04C13.992 12.64 13.968 13.344 13.968 14.208C13.968 14.576 13.976 15.112 13.992 15.816C14.008 16.52 14.056 17.248 14.136 18C13.32 17.968 12.4 17.952 11.376 17.952C10.352 17.936 9.44 17.928 8.64 17.928C8.24 17.928 7.728 17.928 7.104 17.928C6.48 17.928 5.808 17.936 5.088 17.952C4.368 17.952 3.64 17.96 2.904 17.976C2.168 17.976 1.472 17.984 0.816 18V17.52C1.328 17.488 1.712 17.424 1.968 17.328C2.224 17.232 2.392 17.04 2.472 16.752C2.568 16.464 2.616 16.032 2.616 15.456V3.552C2.616 2.96 2.568 2.528 2.472 2.256C2.392 1.968 2.216 1.776 1.944 1.68C1.688 1.568 1.312 1.504 0.816 1.488V1.008C1.216 1.024 1.752 1.04 2.424 1.056C3.112 1.072 3.84 1.08 4.608 1.08C5.312 1.08 6 1.072 6.672 1.056C7.36 1.04 7.928 1.024 8.376 1.008ZM28.3279 1.008C28.2639 1.712 28.2159 2.392 28.1839 3.048C28.1679 3.704 28.1599 4.208 28.1599 4.56C28.1599 4.88 28.1679 5.184 28.1839 5.472C28.1999 5.76 28.2159 6 28.2319 6.192H27.6799C27.5199 5.024 27.2719 4.104 26.9359 3.432C26.5999 2.744 26.1599 2.264 25.6159 1.992C25.0879 1.704 24.4639 1.56 23.7439 1.56H22.7599C22.2959 1.56 21.9439 1.6 21.7039 1.68C21.4639 1.76 21.3039 1.92 21.2239 2.16C21.1439 2.4 21.1039 2.768 21.1039 3.264V15.744C21.1039 16.24 21.1439 16.608 21.2239 16.848C21.3039 17.088 21.4639 17.248 21.7039 17.328C21.9439 17.408 22.2959 17.448 22.7599 17.448H23.9359C24.6559 17.448 25.2879 17.296 25.8319 16.992C26.3919 16.672 26.8639 16.136 27.2479 15.384C27.6479 14.632 27.9519 13.616 28.1599 12.336H28.7119C28.6639 12.848 28.6399 13.52 28.6399 14.352C28.6399 14.72 28.6479 15.24 28.6639 15.912C28.6799 16.584 28.7279 17.28 28.8079 18C27.9919 17.968 27.0719 17.952 26.0479 17.952C25.0239 17.936 24.1119 17.928 23.3119 17.928C22.9119 17.928 22.3999 17.928 21.7759 17.928C21.1519 17.928 20.4799 17.936 19.7599 17.952C19.0399 17.952 18.3119 17.96 17.5759 17.976C16.8399 17.976 16.1439 17.984 15.4879 18V17.52C15.9999 17.488 16.3839 17.424 16.6399 17.328C16.8959 17.232 17.0639 17.04 17.1439 16.752C17.2399 16.464 17.2879 16.032 17.2879 15.456V3.552C17.2879 2.96 17.2399 2.528 17.1439 2.256C17.0639 1.968 16.8879 1.776 16.6159 1.68C16.3599 1.568 15.9839 1.504 15.4879 1.488V1.008C16.1439 1.024 16.8399 1.04 17.5759 1.056C18.3119 1.056 19.0399 1.064 19.7599 1.08C20.4799 1.08 21.1519 1.08 21.7759 1.08C22.3999 1.08 22.9119 1.08 23.3119 1.08C24.0479 1.08 24.8799 1.08 25.8079 1.08C26.7519 1.064 27.5919 1.04 28.3279 1.008ZM24.5839 9.216C24.5839 9.216 24.5839 9.296 24.5839 9.456C24.5839 9.616 24.5839 9.696 24.5839 9.696H20.3839C20.3839 9.696 20.3839 9.616 20.3839 9.456C20.3839 9.296 20.3839 9.216 20.3839 9.216H24.5839ZM25.2799 6.048C25.2159 6.96 25.1839 7.656 25.1839 8.136C25.1999 8.616 25.2079 9.056 25.2079 9.456C25.2079 9.856 25.2159 10.296 25.2319 10.776C25.2479 11.256 25.2879 11.952 25.3519 12.864H24.7999C24.7199 12.304 24.5679 11.784 24.3439 11.304C24.1359 10.824 23.8319 10.44 23.4319 10.152C23.0319 9.848 22.5119 9.696 21.8719 9.696V9.216C22.3519 9.216 22.7599 9.12 23.0959 8.928C23.4319 8.72 23.7039 8.456 23.9119 8.136C24.1359 7.8 24.3119 7.448 24.4399 7.08C24.5679 6.712 24.6639 6.368 24.7279 6.048H25.2799ZM30.6988 1.008C31.0988 1.024 31.6348 1.04 32.3068 1.056C32.9948 1.072 33.6748 1.08 34.3468 1.08C35.1148 1.08 35.8588 1.072 36.5788 1.056C37.2988 1.04 37.8108 1.032 38.1148 1.032C39.6028 1.032 40.8348 1.2 41.8108 1.536C42.8028 1.856 43.5388 2.328 44.0188 2.952C44.5148 3.576 44.7628 4.328 44.7628 5.208C44.7628 5.752 44.6508 6.304 44.4268 6.864C44.2028 7.408 43.8188 7.92 43.2748 8.4C42.7468 8.864 42.0188 9.24 41.0908 9.528C40.1628 9.8 38.9948 9.936 37.5868 9.936H35.2828V9.456H37.3468C38.2908 9.456 39.0028 9.28 39.4828 8.928C39.9788 8.56 40.3148 8.08 40.4908 7.488C40.6828 6.88 40.7788 6.208 40.7788 5.472C40.7788 4.208 40.5548 3.232 40.1068 2.544C39.6588 1.84 38.8908 1.488 37.8028 1.488C37.1788 1.488 36.7708 1.624 36.5788 1.896C36.4028 2.168 36.3148 2.72 36.3148 3.552V15.456C36.3148 16.032 36.3548 16.464 36.4348 16.752C36.5308 17.04 36.7068 17.232 36.9628 17.328C37.2188 17.424 37.6028 17.488 38.1148 17.52V18C37.6828 17.968 37.1388 17.952 36.4828 17.952C35.8268 17.936 35.1628 17.928 34.4908 17.928C33.7228 17.928 32.9948 17.936 32.3068 17.952C31.6348 17.952 31.0988 17.968 30.6988 18V17.52C31.2108 17.488 31.5948 17.424 31.8508 17.328C32.1068 17.232 32.2748 17.04 32.3548 16.752C32.4508 16.464 32.4988 16.032 32.4988 15.456V3.552C32.4988 2.96 32.4508 2.528 32.3548 2.256C32.2748 1.968 32.0988 1.776 31.8268 1.68C31.5708 1.568 31.1948 1.504 30.6988 1.488V1.008ZM35.2348 9.528C35.9228 9.544 36.5148 9.576 37.0108 9.624C37.5228 9.672 37.9708 9.72 38.3548 9.768C38.7388 9.8 39.0828 9.824 39.3868 9.84C40.8428 9.968 41.9148 10.28 42.6028 10.776C43.3068 11.272 43.7628 12.016 43.9708 13.008L44.5228 15.48C44.6668 16.12 44.8188 16.568 44.9788 16.824C45.1388 17.08 45.3708 17.208 45.6748 17.208C45.8828 17.192 46.0508 17.144 46.1788 17.064C46.3228 16.968 46.4748 16.832 46.6348 16.656L46.9708 16.944C46.5388 17.44 46.0748 17.792 45.5788 18C45.0828 18.224 44.4828 18.336 43.7788 18.336C42.9148 18.336 42.2028 18.152 41.6428 17.784C41.0828 17.416 40.7148 16.736 40.5388 15.744L40.1068 13.344C39.9948 12.672 39.8588 12.088 39.6988 11.592C39.5388 11.08 39.3148 10.68 39.0268 10.392C38.7548 10.088 38.3708 9.936 37.8748 9.936H35.2828L35.2348 9.528ZM56.028 0.671999C57.724 0.671999 59.204 1.016 60.468 1.704C61.748 2.392 62.74 3.384 63.444 4.68C64.148 5.96 64.5 7.52 64.5 9.36C64.5 11.152 64.14 12.72 63.42 14.064C62.7 15.408 61.692 16.456 60.396 17.208C59.116 17.96 57.652 18.336 56.004 18.336C54.308 18.336 52.82 17.992 51.54 17.304C50.276 16.616 49.292 15.624 48.588 14.328C47.884 13.032 47.532 11.472 47.532 9.648C47.532 7.856 47.892 6.288 48.612 4.944C49.348 3.6 50.348 2.552 51.612 1.8C52.892 1.048 54.364 0.671999 56.028 0.671999ZM55.932 1.104C55.036 1.104 54.252 1.464 53.58 2.184C52.924 2.904 52.412 3.896 52.044 5.16C51.692 6.424 51.516 7.888 51.516 9.552C51.516 11.248 51.716 12.728 52.116 13.992C52.532 15.24 53.084 16.208 53.772 16.896C54.476 17.568 55.252 17.904 56.1 17.904C56.996 17.904 57.772 17.544 58.428 16.824C59.1 16.104 59.612 15.112 59.964 13.848C60.332 12.568 60.516 11.104 60.516 9.456C60.516 7.744 60.308 6.264 59.892 5.016C59.492 3.768 58.94 2.808 58.236 2.136C57.548 1.448 56.78 1.104 55.932 1.104Z" fill="black"/>
</svg>
