<svg width="107" height="30" viewBox="0 0 107 30" fill="none" xmlns="http://www.w3.org/2000/svg">
<path d="M12.96 0.68V1.48C12.0533 1.50667 11.36 1.61333 10.88 1.8C10.4267 1.96 10.12 2.28 9.96 2.76C9.8 3.21333 9.72 3.93333 9.72 4.92V25.24C9.72 26.0667 9.77333 26.68 9.88 27.08C10.0133 27.48 10.2533 27.7467 10.6 27.88C10.9733 28.0133 11.52 28.08 12.24 28.08H14.2C15.1067 28.08 15.96 27.8667 16.76 27.44C17.56 27.0133 18.28 26.4133 18.92 25.64C19.56 24.84 20.0933 23.8933 20.52 22.8C20.9467 21.7067 21.2667 20.4933 21.48 19.16H22.4C22.32 20.0667 22.28 21.24 22.28 22.68C22.28 23.2933 22.2933 24.1867 22.32 25.36C22.3467 26.5333 22.4267 27.7467 22.56 29C21.2 28.9467 19.6667 28.92 17.96 28.92C16.2533 28.8933 14.7333 28.88 13.4 28.88C12.7333 28.88 11.88 28.88 10.84 28.88C9.8 28.88 8.68 28.8933 7.48 28.92C6.28 28.92 5.06667 28.9333 3.84 28.96C2.61333 28.96 1.45333 28.9733 0.36 29V28.2C1.21333 28.1467 1.85333 28.04 2.28 27.88C2.70667 27.72 2.98667 27.4 3.12 26.92C3.28 26.44 3.36 25.72 3.36 24.76V4.92C3.36 3.93333 3.28 3.21333 3.12 2.76C2.98667 2.28 2.69333 1.96 2.24 1.8C1.81333 1.61333 1.18667 1.50667 0.36 1.48V0.68C1.02667 0.706666 1.92 0.733332 3.04 0.759999C4.18667 0.786665 5.4 0.799998 6.68 0.799998C7.85333 0.799998 9 0.786665 10.12 0.759999C11.2667 0.733332 12.2133 0.706666 12.96 0.68ZM46.2131 0.68C46.1065 1.85333 46.0265 2.98667 45.9731 4.08C45.9465 5.17333 45.9331 6.01333 45.9331 6.6C45.9331 7.13333 45.9465 7.64 45.9731 8.12C45.9998 8.6 46.0265 9 46.0531 9.32H45.1331C44.8665 7.37333 44.4531 5.84 43.8931 4.72C43.3331 3.57333 42.5998 2.77333 41.6931 2.32C40.8131 1.84 39.7731 1.6 38.5731 1.6H36.9331C36.1598 1.6 35.5731 1.66666 35.1731 1.8C34.7731 1.93333 34.5065 2.2 34.3731 2.6C34.2398 3 34.1731 3.61333 34.1731 4.44V25.24C34.1731 26.0667 34.2398 26.68 34.3731 27.08C34.5065 27.48 34.7731 27.7467 35.1731 27.88C35.5731 28.0133 36.1598 28.08 36.9331 28.08H38.8931C40.0931 28.08 41.1465 27.8267 42.0531 27.32C42.9865 26.7867 43.7731 25.8933 44.4131 24.64C45.0798 23.3867 45.5865 21.6933 45.9331 19.56H46.8531C46.7731 20.4133 46.7331 21.5333 46.7331 22.92C46.7331 23.5333 46.7465 24.4 46.7731 25.52C46.7998 26.64 46.8798 27.8 47.0131 29C45.6531 28.9467 44.1198 28.92 42.4131 28.92C40.7065 28.8933 39.1865 28.88 37.8531 28.88C37.1865 28.88 36.3331 28.88 35.2931 28.88C34.2531 28.88 33.1331 28.8933 31.9331 28.92C30.7331 28.92 29.5198 28.9333 28.2931 28.96C27.0665 28.96 25.9065 28.9733 24.8131 29V28.2C25.6665 28.1467 26.3065 28.04 26.7331 27.88C27.1598 27.72 27.4398 27.4 27.5731 26.92C27.7331 26.44 27.8131 25.72 27.8131 24.76V4.92C27.8131 3.93333 27.7331 3.21333 27.5731 2.76C27.4398 2.28 27.1465 1.96 26.6931 1.8C26.2665 1.61333 25.6398 1.50667 24.8131 1.48V0.68C25.9065 0.706666 27.0665 0.733332 28.2931 0.759999C29.5198 0.759999 30.7331 0.773332 31.9331 0.799998C33.1331 0.799998 34.2531 0.799998 35.2931 0.799998C36.3331 0.799998 37.1865 0.799998 37.8531 0.799998C39.0798 0.799998 40.4665 0.799998 42.0131 0.799998C43.5865 0.773332 44.9865 0.733332 46.2131 0.68ZM39.9731 14.36C39.9731 14.36 39.9731 14.4933 39.9731 14.76C39.9731 15.0267 39.9731 15.16 39.9731 15.16H32.9731C32.9731 15.16 32.9731 15.0267 32.9731 14.76C32.9731 14.4933 32.9731 14.36 32.9731 14.36H39.9731ZM41.1331 9.08C41.0265 10.6 40.9731 11.76 40.9731 12.56C40.9998 13.36 41.0131 14.0933 41.0131 14.76C41.0131 15.4267 41.0265 16.16 41.0531 16.96C41.0798 17.76 41.1465 18.92 41.2531 20.44H40.3331C40.1998 19.5067 39.9465 18.64 39.5731 17.84C39.2265 17.04 38.7198 16.4 38.0531 15.92C37.3865 15.4133 36.5198 15.16 35.4531 15.16V14.36C36.2531 14.36 36.9331 14.2 37.4931 13.88C38.0531 13.5333 38.5065 13.0933 38.8531 12.56C39.2265 12 39.5198 11.4133 39.7331 10.8C39.9465 10.1867 40.1065 9.61333 40.2131 9.08H41.1331ZM50.1647 0.68C50.8314 0.706666 51.7247 0.733332 52.8447 0.759999C53.9914 0.786665 55.1247 0.799998 56.2447 0.799998C57.5247 0.799998 58.7647 0.786665 59.9647 0.759999C61.1647 0.733332 62.018 0.719999 62.5247 0.719999C65.0047 0.719999 67.058 0.999999 68.6847 1.56C70.338 2.09333 71.5647 2.88 72.3647 3.92C73.1914 4.96 73.6047 6.21333 73.6047 7.68C73.6047 8.58667 73.418 9.50667 73.0447 10.44C72.6714 11.3467 72.0314 12.2 71.1247 13C70.2447 13.7733 69.0314 14.4 67.4847 14.88C65.938 15.3333 63.9914 15.56 61.6447 15.56H57.8047V14.76H61.2447C62.818 14.76 64.0047 14.4667 64.8047 13.88C65.6314 13.2667 66.1914 12.4667 66.4847 11.48C66.8047 10.4667 66.9647 9.34667 66.9647 8.12C66.9647 6.01333 66.5914 4.38667 65.8447 3.24C65.098 2.06667 63.818 1.48 62.0047 1.48C60.9647 1.48 60.2847 1.70667 59.9647 2.16C59.6714 2.61333 59.5247 3.53333 59.5247 4.92V24.76C59.5247 25.72 59.5914 26.44 59.7247 26.92C59.8847 27.4 60.178 27.72 60.6047 27.88C61.0314 28.04 61.6714 28.1467 62.5247 28.2V29C61.8047 28.9467 60.898 28.92 59.8047 28.92C58.7114 28.8933 57.6047 28.88 56.4847 28.88C55.2047 28.88 53.9914 28.8933 52.8447 28.92C51.7247 28.92 50.8314 28.9467 50.1647 29V28.2C51.018 28.1467 51.658 28.04 52.0847 27.88C52.5114 27.72 52.7914 27.4 52.9247 26.92C53.0847 26.44 53.1647 25.72 53.1647 24.76V4.92C53.1647 3.93333 53.0847 3.21333 52.9247 2.76C52.7914 2.28 52.498 1.96 52.0447 1.8C51.618 1.61333 50.9914 1.50667 50.1647 1.48V0.68ZM57.7247 14.88C58.8714 14.9067 59.858 14.96 60.6847 15.04C61.538 15.12 62.2847 15.2 62.9247 15.28C63.5647 15.3333 64.138 15.3733 64.6447 15.4C67.0714 15.6133 68.858 16.1333 70.0047 16.96C71.178 17.7867 71.938 19.0267 72.2847 20.68L73.2047 24.8C73.4447 25.8667 73.698 26.6133 73.9647 27.04C74.2314 27.4667 74.618 27.68 75.1247 27.68C75.4714 27.6533 75.7514 27.5733 75.9647 27.44C76.2047 27.28 76.458 27.0533 76.7247 26.76L77.2847 27.24C76.5647 28.0667 75.7914 28.6533 74.9647 29C74.138 29.3733 73.138 29.56 71.9647 29.56C70.5247 29.56 69.338 29.2533 68.4047 28.64C67.4714 28.0267 66.858 26.8933 66.5647 25.24L65.8447 21.24C65.658 20.12 65.4314 19.1467 65.1647 18.32C64.898 17.4667 64.5247 16.8 64.0447 16.32C63.5914 15.8133 62.9514 15.56 62.1247 15.56H57.8047L57.7247 14.88ZM92.38 0.119998C95.2067 0.119998 97.6733 0.693331 99.78 1.84C101.913 2.98667 103.567 4.64 104.74 6.8C105.913 8.93333 106.5 11.5333 106.5 14.6C106.5 17.5867 105.9 20.2 104.7 22.44C103.5 24.68 101.82 26.4267 99.66 27.68C97.5267 28.9333 95.0867 29.56 92.34 29.56C89.5133 29.56 87.0333 28.9867 84.9 27.84C82.7933 26.6933 81.1533 25.04 79.98 22.88C78.8067 20.72 78.22 18.12 78.22 15.08C78.22 12.0933 78.82 9.48 80.02 7.24C81.2467 5 82.9133 3.25333 85.02 2C87.1533 0.746665 89.6067 0.119998 92.38 0.119998ZM92.22 0.839998C90.7267 0.839998 89.42 1.44 88.3 2.64C87.2067 3.84 86.3533 5.49333 85.74 7.6C85.1533 9.70667 84.86 12.1467 84.86 14.92C84.86 17.7467 85.1933 20.2133 85.86 22.32C86.5533 24.4 87.4733 26.0133 88.62 27.16C89.7933 28.28 91.0867 28.84 92.5 28.84C93.9933 28.84 95.2867 28.24 96.38 27.04C97.5 25.84 98.3533 24.1867 98.94 22.08C99.5533 19.9467 99.86 17.5067 99.86 14.76C99.86 11.9067 99.5133 9.44 98.82 7.36C98.1533 5.28 97.2333 3.68 96.06 2.56C94.9133 1.41333 93.6333 0.839998 92.22 0.839998Z" fill="white"/>
</svg>
